<svg t="1637822484292" class="icon" viewBox="0 0 1024 1024" version="1.1" xmlns="http://www.w3.org/2000/svg" p-id="1709" width="200" height="200"><path d="M512.192 32a48 48 0 0 1 47.552 41.472l0.448 6.528v669.568a48 48 0 0 1-95.552 6.528l-0.448-6.528V80a48 48 0 0 1 48-48z" fill="#eeeeee" p-id="1710"></path><path d="M190.08 430.08a48 48 0 0 1 62.464-4.672l5.376 4.672L512 684.096l254.08-254.08a48 48 0 0 1 62.464-4.608l5.376 4.672a48 48 0 0 1 4.672 62.464l-4.672 5.376-288 288a48 48 0 0 1-62.464 4.672l-5.376-4.672-288-288a48 48 0 0 1 0-67.84zM909.696 896c36.608 0 66.304 21.504 66.304 48 0 24.32-24.96 44.352-57.28 47.552l-8.96 0.448H114.176c-36.544 0-66.24-21.504-66.24-48 0-24.32 24.96-44.352 57.28-47.552l8.96-0.448h795.52z" fill="#eeeeee" p-id="1711"></path></svg>
