<?xml version="1.0" standalone="no"?><!DOCTYPE svg PUBLIC "-//W3C//DTD SVG 1.1//EN" "http://www.w3.org/Graphics/SVG/1.1/DTD/svg11.dtd"><svg t="1630467504025" class="icon" viewBox="0 0 1024 1024" version="1.1" xmlns="http://www.w3.org/2000/svg" p-id="1656" xmlns:xlink="http://www.w3.org/1999/xlink" width="200" height="200"><defs><style type="text/css"></style></defs><path d="M712.5 925.6H311.1c-14.7 0-28.2-8.1-35.2-21L75.2 531.8c-6.4-11.8-6.4-26.1 0-37.9l200.7-372.7c7-13 20.5-21 35.2-21h401.4c14.7 0 28.2 8.1 35.2 21l200.7 372.7c6.4 11.8 6.4 26.1 0 37.9L747.7 904.5c-7 13-20.5 21.1-35.2 21.1z m-377.5-80h353.6l179.1-332.7-179.1-332.8H335L155.9 512.8 335 845.6z" p-id="1657"></path><path d="M511.2 703.1c-105.5 0-191.4-85.9-191.4-191.4s85.9-191.4 191.4-191.4 191.4 85.9 191.4 191.4-85.9 191.4-191.4 191.4z m0-302.8c-61.4 0-111.4 50-111.4 111.4s50 111.4 111.4 111.4 111.4-50 111.4-111.4-50-111.4-111.4-111.4z" p-id="1658"></path></svg>