<svg t="1636361485746" class="icon" viewBox="0 0 1024 1024" version="1.1" xmlns="http://www.w3.org/2000/svg" p-id="2722" width="200" height="200"><path d="M70.213818 255.232L507.554909 0.139636 944.872727 255.232V767.069091L507.554909 1022.138182 70.213818 765.44V255.232z m801.768727 473.786182V291.677091l-364.450909-218.647273-364.450909 218.647273v437.341091l364.450909 218.670545 364.450909-218.670545z m-323.258181-179.060364v245.597091c0 17.454545-14.242909 31.697455-31.674182 31.697455s-31.697455-12.683636-31.697455-31.697455v-247.156364l-225.000727-126.789818c-14.266182-7.912727-19.013818-28.509091-11.077818-44.357818 4.747636-6.330182 11.077818-12.683636 19.013818-14.266182 7.912727-1.582545 15.825455-1.582545 25.344 3.165091l223.418182 128.349091 220.253091-126.766545c14.266182-7.912727 34.862545-4.747636 42.775272 9.518545 7.912727 14.266182 3.165091 34.862545-11.077818 42.775273l-220.253091 129.931636z" p-id="2723"></path></svg>
